<svg width="20" height="22" viewBox="0 0 20 22" fill="none" xmlns="http://www.w3.org/2000/svg">
<path fill-rule="evenodd" clip-rule="evenodd" d="M9.57632 0.450638C9.81064 0.216324 10.1905 0.216324 10.4249 0.450638L14.9249 4.95064C15.1592 5.18495 15.1592 5.56485 14.9249 5.79917C14.6905 6.03348 14.3106 6.03348 14.0763 5.79917L10.6004 2.32323V12.1249C10.6004 12.4563 10.3318 12.7249 10.0004 12.7249C9.66902 12.7249 9.40039 12.4563 9.40039 12.1249V2.32363L5.92485 5.79917C5.69054 6.03348 5.31064 6.03348 5.07632 5.79917C4.84201 5.56485 4.84201 5.18495 5.07632 4.95064L9.57632 0.450638ZM2.12539 10.3499C1.83544 10.3499 1.60039 10.585 1.60039 10.8749V19.9999C1.60039 20.2899 1.83544 20.5249 2.12539 20.5249H17.8754C18.1653 20.5249 18.4004 20.2899 18.4004 19.9999V10.8749C18.4004 10.585 18.1653 10.3499 17.8754 10.3499H15.6254C15.294 10.3499 15.0254 10.0813 15.0254 9.7499C15.0254 9.41853 15.294 9.1499 15.6254 9.1499H17.8754C18.8281 9.1499 19.6004 9.92221 19.6004 10.8749V19.9999C19.6004 20.9526 18.8281 21.7249 17.8754 21.7249H2.12539C1.1727 21.7249 0.400391 20.9526 0.400391 19.9999V10.8749C0.400391 9.92221 1.1727 9.1499 2.12539 9.1499H4.37539C4.70676 9.1499 4.97539 9.41853 4.97539 9.7499C4.97539 10.0813 4.70676 10.3499 4.37539 10.3499H2.12539Z" fill="#101010"/>
</svg>
